<svg
        xmlns="http://www.w3.org/2000/svg"
        viewBox="0 0 1372.72 327.12"
        fill="currentColor"
      >
        <path
          d="M1.09,4.83l41.1,54L108,145.35l15,19.77a3.11,3.11,0,0,0,4.11,1.08l71.55-36.3L312.69,72.11l26-13.19c2.17-1.1,1.83-5.08-.72-5.48L225.12,35.49,45.44,6.93,4.48.42C.7-.18-.92,5.6,2.88,6.21L115.75,24.15,295.43,52.71l40.95,6.51-.71-5.48L264.12,90,150.18,147.82l-26,13.2,4.1,1.07-41.09-54L21.32,21.58,6.27,1.8C4-1.23-1.25,1.75,1.09,4.83Z"
        />
        <path
          d="M335.67,53.74,264.12,90,150.18,147.82l-26,13.2c-2.78,1.41-1.3,5.49,1.51,5.59l37.89,1.28L255.08,171l110.27,3.73L461.13,178,492.56,179c4.89.16,10.05.82,14.95.5.22,0,.45,0,.67,0,3.19.1,3.79-4,1.52-5.59l-57.78-40.62L359.84,68.6,338.7,53.74c-3.17-2.23-6.17,3-3,5.18l57.77,40.61,92.09,64.74,21.14,14.87,1.51-5.59-37.88-1.28-91.51-3.1-110.28-3.73-95.78-3.24-31.42-1.06-9.8-.34c-1.54-.05-3.65-.5-5.16-.17a3.81,3.81,0,0,1-.67,0l1.52,5.59,71.55-36.3L312.69,72.11l26-13.19C342.14,57.17,339.11,52,335.67,53.74Z"
        />
        <path
          d="M.18,2.9.35,111.31.62,284.15.68,323.9c0,3.23,3.9,3.74,5.59,1.51l41.1-54,65.85-86.52,15.05-19.78a2.86,2.86,0,0,0,0-3L86.94,107.87,21,21.36,5.77,1.38c-2.31-3-7.52,0-5.18,3L41.92,58.63l65.94,86.51,15.23,20v-3l-41.1,54L16.14,302.61l-15,19.77,5.59,1.52L6.51,215.49,6.24,42.64,6.18,2.9C6.18-1,.18-1,.18,2.9Z"
        />
        <path
          d="M123.09,162.09l-41.1,54L16.14,302.61l-15,19.77c-1.64,2.15,1.06,5.09,3.39,4.41l50.16-14.65L175.09,277l145.75-42.57,126-36.8,41.54-12.14c6.54-1.91,13.31-3.48,19.73-5.76.28-.1.57-.17.86-.25a3,3,0,0,0-.8-5.89l-37.88-1.28-91.51-3.1-110.28-3.73-95.78-3.24-31.42-1.06c-4.9-.17-10.06-.83-15-.51-.22,0-.45,0-.67,0-3.86-.13-3.85,5.87,0,6l37.89,1.28L255.08,171l110.27,3.73L461.13,178,492.56,179l9.8.33c1.54.05,3.63.5,5.15.17a3,3,0,0,1,.67,0l-.8-5.9L457.23,188.3,336.77,223.49,191,266.05,65,302.86,23.47,315l-12.94,3.78c-2.07.61-4.88.93-6.78,2a4,4,0,0,1-.87.26l3.39,4.4,41.1-54,65.85-86.52,15.05-19.78C130.61,162.05,125.4,159.06,123.09,162.09Z"
        />
        <path
          d="M505.59,178.06l62.68,129.17,8.82,18.18a3,3,0,0,0,3.39,1.38l82-33,129.6-52.19L822,229.53c2.38-1,3.28-5.26,0-5.78l-106-17-168.67-27L509,173.65c-3.78-.6-5.4,5.18-1.6,5.79l106,17,168.68,27,38.29,6.13v-5.78l-82,33L608.79,309,578.88,321l3.39,1.37L519.6,193.22,510.77,175C509.09,171.56,503.91,174.6,505.59,178.06Z"
        />
        <path
          d="M3.68,326.9H556.23c7.42,0,15,.5,22.45,0,.33,0,.67,0,1,0a3,3,0,0,0,2.59-4.52L519.6,193.22,510.77,175a3,3,0,0,0-3.39-1.38L457.23,188.3,336.77,223.49,191,266.05,65,302.86,23.47,315c-6.53,1.91-13.3,3.48-19.72,5.76-.28.1-.58.17-.87.26-3.69,1.08-2.12,6.87,1.6,5.78l50.16-14.65L175.09,277l145.75-42.57,126-36.8,41.54-12.14,12.94-3.78c2.06-.6,4.91-.92,6.79-2a4.75,4.75,0,0,1,.86-.25l-3.39-1.38,62.68,129.17,8.82,18.18,2.59-4.51H27.14c-7.44,0-15-.42-22.45,0-.34,0-.67,0-1,0C-.18,320.9-.18,326.9,3.68,326.9Z"
        />
        <path
          d="M579.68,326.9H971c5.24,0,10.71.45,15.94,0,.24,0,.48,0,.72,0a3,3,0,0,0,1.52-5.59l-73.37-42.86-90.16-52.66c-1.83-1.07-3.36-2.37-5.55-1.94-2.37.46-4.91,2-7.14,2.88l-37.32,15L658.24,289.05c-26,10.48-52.1,20.89-78.1,31.45l-1.26.51c-3.53,1.42-2,7.23,1.6,5.78l64.82-26.1,118-47.53,43.83-17.65,11.78-4.75c.6-.24,2.2-.56,2.64-1.06.79-.92-2.18-1.21-1.52-.25.51.73,2.37,1.38,3.13,1.82l5.75,3.36L847,245.19l52.48,30.66,53.59,31.3L973.27,319c3.72,2.18,7.43,4.81,11.34,6.63.54.25,1,.61,1.56.91l1.51-5.59H596.35c-5.25,0-10.71-.45-15.94,0-.24,0-.49,0-.73,0C575.82,320.9,575.82,326.9,579.68,326.9Z"
        />
        <path
          d="M819.67,229.23,875.81,262l89.61,52.35,20.75,12.12a3,3,0,0,0,4.4-1.79L1015.49,249l39.51-120,9.07-27.57c.87-2.61-2.21-4.54-4.4-3.38L978.4,140.67,849.08,208.6l-29.41,15.45c-3.42,1.79-.39,7,3,5.18L904,186.54l129.33-67.93,29.41-15.44-4.41-3.39-24.92,75.7-39.51,120-9.07,27.57,4.41-1.79-56.14-32.8-89.62-52.34L822.7,224.05C819.36,222.1,816.33,227.28,819.67,229.23Z"
        />
        <path
          d="M1372.18,323.48l.17-62.52.27-99.6.06-22.8a3,3,0,0,0-4.51-2.59l-38.08,18.47-91.4,44.35-110.07,53.4-95.21,46.2-31.65,15.35c-4.88,2.37-10.32,4.38-14.92,7.24-.21.13-.45.22-.67.33-2.76,1.33-1.32,5.59,1.51,5.59l38,0,90.82-.1,110.36-.12,95.06-.11,31.54,0c4.94,0,10.1.42,15,0,.22,0,.45,0,.67,0,3.86,0,3.87-6,0-6l-38,0-90.81.1-110.37.12-95.06.11-31.54,0h-9.84c-1.54,0-3.67-.38-5.18,0a3,3,0,0,1-.67,0l1.52,5.59L1027.27,308l91.4-44.35,110.07-53.4,95.21-46.2,31.66-15.36,9.78-4.74c1.54-.75,3.82-1.39,5.14-2.49a3,3,0,0,1,.67-.33l-4.52-2.59-.17,62.52-.27,99.6-.06,22.8C1366.17,327.34,1372.17,327.35,1372.18,323.48Z"
        />
        <path
          d="M989.2,326.49,1027.27,308l91.4-44.35,110.07-53.4,95.21-46.2,31.66-15.36c4.87-2.36,10.31-4.37,14.92-7.23a7,7,0,0,1,.67-.33c3-1.45,1.09-5.27-1.52-5.59l-104.52-12.87-165.92-20.43-38.06-4.68a3,3,0,0,0-2.89,2.2l-24.92,75.7-39.51,120-9.07,27.57c-1.21,3.68,4.58,5.25,5.78,1.6L1015.49,249l39.51-120,9.07-27.57-2.89,2.21,104.52,12.86,165.92,20.43,38.06,4.69-1.51-5.59-38.08,18.47-91.4,44.35-110.07,53.4-95.21,46.2-31.65,15.35c-4.88,2.37-10.32,4.38-14.92,7.24-.21.13-.45.22-.67.33C982.69,323,985.73,328.17,989.2,326.49Z"
        />
      </svg>