 <svg
        xmlns="http://www.w3.org/2000/svg"
        viewBox="0 0 1371.9 150.09"
        fill="currentColor"
      >
        <path
          d="M2.9,6.78h241L241,3,193.79,128.21l-6.78,18,4.4-1.79-63.1-48.33L27.65,19,4.41,1.18c-3.06-2.34-6,2.87-3,5.19L64.48,54.7l100.67,77.1,23.23,17.8c1.68,1.29,3.81-.2,4.41-1.79L240,22.58l6.79-18c.7-1.85-1.09-3.79-2.89-3.79H2.9C-1,.78-1,6.78,2.9,6.78Z"
        />
        <path
          d="M535.2,87.82,436.6,58.31l-156-46.68L244.7.88A3.08,3.08,0,0,0,241,3L193.79,128.21l-6.78,18c-.9,2.37,1.67,4,3.69,3.69l34.07-5.57,82.38-13.46,99.26-16.22,86.29-14.1L521,95.92c4.39-.72,9.27-1,13.54-2.21a6.37,6.37,0,0,1,.63-.11c3.8-.62,2.18-6.4-1.6-5.78l-34.08,5.57-82.38,13.46-99.25,16.22-86.29,14.1-28.34,4.63c-4,.66-9.8.54-13.53,2.21a2.68,2.68,0,0,1-.63.11l3.69,3.69L240,22.58l6.79-18-3.69,2.1,98.59,29.5,156,46.68L533.6,93.6C537.31,94.71,538.89,88.92,535.2,87.82Z"
        />
        <path
          d="M537,92.23l38.93-76.07,5.57-10.87A3,3,0,0,0,578.9.78h-335c-3.42,0-4,4.92-.8,5.89l98.59,29.5,156,46.68L533.6,93.6c3.71,1.11,5.29-4.68,1.6-5.78L436.6,58.31l-156-46.68L244.7.88l-.8,5.9h335l-2.59-4.52L537.37,78.33,531.81,89.2C530.05,92.63,535.23,95.67,537,92.23Z"
        />
        <path
          d="M535.2,93.6,667.78,43.16l18.42-7c2.63-1,3-4.94,0-5.79L592.88,4.53,579.7.88a3.06,3.06,0,0,0-3.39,1.38L537.37,78.33,531.81,89.2c-1.76,3.43,3.42,6.47,5.18,3l38.93-76.07,5.57-10.87L578.1,6.67l93.32,25.84,13.18,3.65V30.37L552,80.81l-18.42,7C530,89.18,531.58,95,535.2,93.6Z"
        />
        <path
          d="M1026.29,138.17,994.38,19.3,989.79,2.21A3,3,0,0,0,986.9,0L884.57,10,722.69,25.85,685.4,29.5c-3.28.32-4.18,4.83-.8,5.89L718.3,46l80.45,25.34,97.79,30.8,84.21,26.53,28,8.8c4.35,1.37,8.83,3.27,13.3,4.19a6,6,0,0,1,.6.19c3.69,1.16,5.27-4.63,1.6-5.79l-33.71-10.61-80.44-25.34L812.26,69.31,728.05,42.79,700.1,34c-4-1.26-9.11-4-13.31-4.2a3.09,3.09,0,0,1-.59-.18l-.8,5.89,102.32-10L949.61,9.66,986.9,6,984,3.81l31.91,118.87,4.59,17.08C1021.51,143.49,1027.29,141.91,1026.29,138.17Z"
        />
        <path
          d="M1024.2,142.63l34.46-9.13,82.26-21.8,100-26.49L1327,62.41l28.55-7.56c4.45-1.18,9.23-2,13.57-3.6.19-.07.4-.1.6-.16,3.49-.92,2.37-5.52-.8-5.89L1331,40.79,1239.94,30.2,1129.22,17.33,1033.93,6.25,1002.61,2.6C997.74,2,992.48.81,987.56.85c-.22,0-.45,0-.66-.07-2-.24-3.35,2.09-2.89,3.79l31.91,118.88,4.59,17.08c1,3.73,6.78,2.15,5.78-1.59L994.38,20.06,989.79,3l-2.89,3.8,37.9,4.4,91.06,10.59,110.71,12.88,95.3,11.08,31.31,3.64,9.94,1.16c1.53.18,3.58.79,5.11.59a3.94,3.94,0,0,1,.67.08l-.8-5.89-34.46,9.13-82.27,21.79-100,26.49-86.07,22.8-28.55,7.57c-4.46,1.18-9.24,2-13.57,3.59a5.87,5.87,0,0,1-.6.16C1018.87,137.83,1020.45,143.62,1024.2,142.63Z"
        />
        <path
          d="M1371.9,48.2l-.5-44.81a3,3,0,0,0-3-3l-38,0-90.82.09L1129.19.63l-95.06.1-31.54,0c-4.94,0-10.1-.42-15,0-.22,0-.45,0-.67,0-4,0-3.74,5.56,0,6l37.9,4.4,91.06,10.59,110.71,12.88,95.3,11.08,31.31,3.64c4.88.57,10.13,1.8,15,1.75.22,0,.45.06.67.08,3.83.45,3.79-5.56,0-6L1331,40.79,1239.94,30.2,1129.22,17.33,1033.93,6.25,1002.61,2.6l-9.93-1.15c-1.54-.18-3.57-.79-5.12-.6a3,3,0,0,1-.66-.07v6l38,0,90.81-.09,110.37-.11,95.06-.1,31.54,0h9.84c1.51,0,3.72.41,5.18,0a3,3,0,0,1,.67,0l-3-3,.5,44.81C1365.94,52.06,1371.94,52.07,1371.9,48.2Z"
        />
        <path
          d="M686.2,29.61,592.88,4.44,579.7.88l-.8,5.9H980.74c1.64,0,3.83.38,5.43,0a3,3,0,0,1,.73,0v-6L884.57,10.52,722.69,26,685.4,29.5c-3.81.36-3.85,6.37,0,6l102.32-9.75L949.61,10.33,986.9,6.78c3.77-.36,3.93-6,0-6H595.56c-5.24,0-10.71-.45-15.94,0-.24,0-.48,0-.72,0-3.37,0-4.09,5-.8,5.89l93.32,25.17,13.18,3.55C688.33,36.4,689.93,30.61,686.2,29.61Z"
        />
      </svg>