<svg xmlns="http://www.w3.org/2000/svg" viewBox="0 0 597.27 699.63"><path d="M0,700c11.58-2.53,23.09-5.33,34.56-8.27s22.92-6,34.32-9.14c22.79-6.4,45.44-13.26,67.83-20.87s44.58-15.76,66.29-25,43.05-19.31,63.37-31.08a338.46,338.46,0,0,0,29.47-19.06,214.68,214.68,0,0,0,26.57-22.47,124.68,124.68,0,0,0,20.66-27.19l1.87-3.78c.3-.64.66-1.25.92-1.9l.79-2c.5-1.3,1.09-2.58,1.54-3.9l1.26-4a37.91,37.91,0,0,0,1-4l.46-2,.23-1c.06-.34.1-.68.15-1l.55-4.12a14.18,14.18,0,0,0,.16-2.06l.09-2.08a69.35,69.35,0,0,0-.15-8.28c-.09-1.38-.37-2.75-.53-4.12a33.41,33.41,0,0,0-.69-4.1l-.93-4.07a15.37,15.37,0,0,0-.57-2l-.64-2-1.32-4.06-1.46-4.37c-.24-.73-.51-1.45-.72-2.2l-.61-2.23c-.4-1.5-.82-3-1.2-4.48-.59-3.06-1.35-6.07-1.68-9.2l-.31-2.32-.15-1.17-.07-1.18-.28-4.71a79.37,79.37,0,0,1,.41-9.5,67.4,67.4,0,0,1,4.66-18.54,71.89,71.89,0,0,1,9.67-16.37,96.41,96.41,0,0,1,12.92-13.54,152.71,152.71,0,0,1,14.7-11.07c5.09-3.36,10.34-6.39,15.63-9.3s10.68-5.56,16.09-8.14c10.82-5.14,21.78-9.83,32.72-14.43,21.88-9.19,43.77-18,64.58-28.72a246.92,246.92,0,0,0,30-17.82,135.1,135.1,0,0,0,25.5-22.94l1.38-1.62c.45-.56.86-1.13,1.29-1.69.85-1.14,1.74-2.25,2.55-3.41l2.37-3.53c.4-.58.77-1.18,1.12-1.8l1.06-1.83,1.07-1.83c.36-.61.64-1.26,1-1.89.62-1.26,1.27-2.52,1.87-3.79,1.07-2.62,2.25-5.19,3.09-7.89,3.79-10.66,5.16-22.12,5-33.56a212,212,0,0,0-3.88-34.59,202.94,202.94,0,0,0-10.12-33.36c-8.57-21.7-21.35-41.66-36.53-59.51s-32.9-33.68-52-47.55Q472.59,25.93,457.26,17C447.07,11,436.61,5.39,425.87.37c10.94,4.56,21.65,9.68,32.13,15.26s20.63,11.79,30.5,18.44a293.46,293.46,0,0,1,54.08,46.59c15.92,17.82,29.5,38,38.89,60.23a201.13,201.13,0,0,1,11.12,34.36,219.63,219.63,0,0,1,4.62,35.88c.38,12.2-.88,24.68-4.84,36.45-.88,3-2.14,5.81-3.29,8.69-.65,1.41-1.35,2.79-2,4.19-.35.69-.66,1.41-1,2.08l-1.15,2-1.15,2c-.37.67-.77,1.34-1.2,2L580,272.44c-.88,1.27-1.83,2.49-2.74,3.73-.46.62-.91,1.25-1.39,1.85l-1.48,1.78a143.8,143.8,0,0,1-26.93,24.75,256.9,256.9,0,0,1-30.89,18.8c-10.62,5.62-21.5,10.57-32.4,15.36s-21.86,9.34-32.75,14S429.71,362,419.14,367c-5.28,2.54-10.48,5.18-15.59,8s-10.08,5.74-14.88,8.9A143.7,143.7,0,0,0,375,394.12a86.62,86.62,0,0,0-11.62,12.09,61.82,61.82,0,0,0-8.41,14.1,57.19,57.19,0,0,0-4,15.79,68.48,68.48,0,0,0-.39,8.24l.23,4.15.06,1,.14,1,.27,2.08c.26,2.77,1,5.52,1.48,8.28.34,1.37.73,2.74,1.09,4.1l.55,2.06c.19.68.44,1.35.65,2l1.35,4.05,1.41,4.4.71,2.24a18.85,18.85,0,0,1,.63,2.26l1,4.59a40.45,40.45,0,0,1,.78,4.66c.18,1.56.46,3.12.55,4.69a76.73,76.73,0,0,1,.08,9.47l-.12,2.36a18.65,18.65,0,0,1-.22,2.36l-.67,4.69c-.06.39-.11.78-.18,1.16l-.27,1.15-.54,2.3a44.33,44.33,0,0,1-1.21,4.56l-1.46,4.47c-.52,1.48-1.18,2.9-1.76,4.34L354.2,535c-.3.72-.69,1.4-1,2.1l-2.12,4.15a133.16,133.16,0,0,1-22.45,29c-17.34,17.1-37.56,30.44-58.39,42.11-10.45,5.83-21.11,11.19-31.92,16.23s-21.75,9.74-32.81,14.13c-22.11,8.8-44.59,16.56-67.27,23.6s-45.59,13.27-68.63,18.89c-11.53,2.78-23.09,5.46-34.68,7.93S11.67,698,0,700Z" transform="translate(0 -0.37)" style="fill:#c14f59"/></svg>