<svg xmlns="http://www.w3.org/2000/svg" viewBox="0 0 704.79 900"><path d="M700,0" transform="translate(4.79)" style="fill:none;stroke:#c14f59;stroke-miterlimit:10;stroke-width:5px"/><path d="M700,0c-15.51,13.41-31.48,26.32-48.15,38.32a485.84,485.84,0,0,1-52.07,32.93A323.52,323.52,0,0,1,543,95.62,250.93,250.93,0,0,1,513,103.09a206.6,206.6,0,0,1-30.93,3.1,182,182,0,0,1-31.1-2,172.44,172.44,0,0,1-30.29-7.61,176.79,176.79,0,0,1-28.35-13.07c-9-5-17.66-10.59-26.72-14.51a66,66,0,0,0-28.51-5.73,75.52,75.52,0,0,0-14.68,1.41,97.38,97.38,0,0,0-14.31,3.81A122.14,122.14,0,0,0,281.5,82c-4.18,2.74-8.21,5.73-12.11,8.88s-7.69,6.46-11.35,9.91c-14.66,13.83-27.43,29.69-39,46.36a478.6,478.6,0,0,0-31.18,52.34c-9.35,18.07-17.76,36.65-25.35,55.55s-14.37,38.14-20.23,57.63c-2.9,9.76-5.68,19.53-8,29.44-2.53,9.85-4.59,19.83-6.7,29.8-4,20-7.32,40.15-10.24,60.36S112,472.77,110,493.11s-3.78,40.75-5.07,61.06l-.12,2-1.42,1.37c-3.46,3.33-7,6.91-10.34,10.46s-6.76,7.2-10.06,10.88q-9.9,11-19.17,22.6A395.57,395.57,0,0,0,30.23,650,253.75,253.75,0,0,0,17,676.21,166.72,166.72,0,0,0,7.8,703.74,112.62,112.62,0,0,0,5.38,717.9a90,90,0,0,0-.48,14.2,72,72,0,0,0,6.39,27.16,66.46,66.46,0,0,0,7.11,12,32,32,0,0,0,2.05,2.63c.76.81,1.49,1.64,2.33,2.41a57.55,57.55,0,0,0,5.27,4.48C35.58,786.45,44.29,791,53.18,795,71.07,802.91,90,809,109,814.41s38.42,10,57.83,14.36,38.94,8.2,58.51,11.83c39.16,7.27,78.54,13.43,118,19.18s79,10.84,118.6,15.6,79.24,9.14,118.91,13.26q29.76,3.09,59.54,5.92c19.86,1.91,39.72,3.76,59.6,5.44-19.91-1.18-39.82-2.54-59.72-4s-39.79-3-59.67-4.67Q521,886.42,461.4,880.2C382,871.77,302.74,862,224,848.22c-39.35-7-78.62-14.75-117.32-25.42-9.67-2.69-19.3-5.56-28.85-8.76s-19-6.69-28.33-10.8-18.47-8.76-27-15a69,69,0,0,1-6.15-5.17c-1-.92-1.93-1.95-2.88-3s-1.86-2.18-2.58-3.24a75.88,75.88,0,0,1-8.13-13.63,80.88,80.88,0,0,1-7.42-30.66,98.58,98.58,0,0,1,.49-15.67,120.67,120.67,0,0,1,2.59-15.32A175.37,175.37,0,0,1,8.11,672.4a261.31,261.31,0,0,1,13.67-27.23,404,404,0,0,1,34.3-49.88q9.42-11.82,19.49-23.07,5-5.62,10.24-11.11c3.48-3.66,7-7.23,10.67-10.83l-1.54,3.34C96.2,533,98,512.56,100.13,492.09s4.6-40.87,7.57-61.24S114,390.17,118.16,370c2.16-10.09,4.26-20.19,6.85-30.2,2.37-10.05,5.22-20,8.23-29.88q9.1-29.62,20.84-58.3c7.81-19.11,16.44-37.88,26-56.18a485.18,485.18,0,0,1,32.06-53.1c11.94-16.92,25.18-33.07,40.51-47.27,3.83-3.54,7.78-7,11.91-10.2s8.35-6.33,12.77-9.17a129.17,129.17,0,0,1,28.32-14,104.4,104.4,0,0,1,15.42-4A82.9,82.9,0,0,1,337,56.34h4l4,.36,2,.18c.34,0,.67,0,1,.1l1,.18,4,.75a32.83,32.83,0,0,1,3.91,1c1.29.38,2.6.72,3.87,1.14l3.76,1.41c.62.25,1.26.46,1.87.73l1.81.83c9.71,4.38,18.32,10.13,27.11,15.17a171,171,0,0,0,27.26,13,167.32,167.32,0,0,0,29.18,7.75A179.29,179.29,0,0,0,482,101.25a201,201,0,0,0,30.27-2.52,245,245,0,0,0,29.69-6.84c19.55-5.71,38.37-13.84,56.56-23.11A487.43,487.43,0,0,0,651,37.07C667.89,25.52,684.16,13,700,0Z" transform="translate(4.79)" style="fill:#c14f59"/></svg>