<svg xmlns="http://www.w3.org/2000/svg" viewBox="0 0 194.75 166.57" fill="#FFFFFF"><path d="M73.39,42.69v19H49.56v77.2H26.72V61.73h-24v-19Z" transform="translate(-2.75 -6.97)"/><path d="M85.82,135.39v38.15H63.12V77.3h42.3q11.7,0,18.79,2.71A24.19,24.19,0,0,1,136,90a29.3,29.3,0,0,1,4.65,16.14q0,17.32-16.71,24.87l17.77,42.55H116.75L102,135.39Zm0-41V119H99.64q6.77,0,9.83-1a10.8,10.8,0,0,0,5.47-4.23,12.4,12.4,0,0,0,2.39-7.5,11.7,11.7,0,0,0-2.39-7.2,9.94,9.94,0,0,0-5.22-3.91q-2.82-.73-10.58-.74Z" transform="translate(-2.75 -6.97)"/><path d="M197.39,90.94l-3.31-24.78a11,11,0,0,0-12.36-9.44L156.94,60a11,11,0,0,0-9.45,12.36l3.32,24.78a11,11,0,0,0,12.36,9.45L188,103.3A11,11,0,0,0,197.39,90.94ZM172.5,87a5.5,5.5,0,1,1,5.5-5.5A5.5,5.5,0,0,1,172.5,87Z" transform="translate(-2.75 -6.97)"/><path d="M194,144.86l-9.74-23A11,11,0,0,0,169.86,116l-23,9.74A11,11,0,0,0,141,140.14l9.74,23A11,11,0,0,0,165.14,169l23-9.74A11,11,0,0,0,194,144.86ZM161.5,163a5.5,5.5,0,1,1,5.5-5.5A5.5,5.5,0,0,1,161.5,163Zm6-15a5.5,5.5,0,1,1,5.5-5.5A5.5,5.5,0,0,1,167.5,148Zm7-16a5.5,5.5,0,1,1,5.5-5.5A5.5,5.5,0,0,1,174.5,132Z" transform="translate(-2.75 -6.97)"/><path d="M135.94,19,113.43,8.07a11,11,0,0,0-14.69,5.11L87.85,35.68A11,11,0,0,0,93,50.37l22.5,10.9a11,11,0,0,0,14.7-5.11L141,33.66A11,11,0,0,0,135.94,19ZM100.5,46a5.5,5.5,0,1,1,5.5-5.5A5.5,5.5,0,0,1,100.5,46ZM104,22.5a5.5,5.5,0,1,1,5.5,5.5A5.5,5.5,0,0,1,104,22.5ZM118.5,54a5.5,5.5,0,1,1,5.5-5.5A5.5,5.5,0,0,1,118.5,54Zm10-18a5.5,5.5,0,1,1,5.5-5.5A5.5,5.5,0,0,1,128.5,36Z" transform="translate(-2.75 -6.97)"/></svg>