<svg xmlns="http://www.w3.org/2000/svg" viewBox="0 0 260.77 302.2"><path fill="currentColor" d="M246.82,18l.1,2.91.1,3.2.1,3.47.09,3.72.09,4,.08,4.16.08,4.36.08,4.54.08,4.69.07,4.84.06,5,.06,5.06.06,5.15.06,5.22,0,5.26,0,5.3,0,5.31,0,5.3,0,5.28,0,5.25,0,5.18,0,5.1v23.72l0,4.26,0,4.05,0,3.83,0,3.58,0,3.33-.05,3-.05,2.76-.06,2.44-.07,2.11-.07,1.75-.08,1.39-.08,1-.06.44-.06.47-.06.49-.07.51-.06.54-.07.55-.07.58-.07.59-.07.61-.07.63-.07.64-.08.67-.07.67-.08.69-.07.7-.08.71-.08.72-.08.74-.08.74-.08.75-.08.75-.07.77-.08.76-.08.78-.08.77-.08.78-.08.78-.08.78-.08.78-.07.78-.08.78-.07.78-.08.77-.07.76-.07.77-.08.75-.07.75-.07.74-.06.73-.07.72-.07.72-.08.72-.07.73-.08.73-.07.74-.08.74-.08.74-.07.74-.08.75-.08.74-.07.74-.08.74-.08.74-.07.73-.08.72-.08.73-.07.71-.08.71-.07.7-.07.69-.08.68-.07.67-.07.66-.07.65-.07.63-.07.62-.06.61-.07.59-.06.57-.06.56-.06.53-.06.52-.06.5,0,.48-.05.46-.05.43,0,.42-.05.38,0,.37-.05.34,0,.32,0,.33-.05.34,0,.34-.05.34,0,.34-.05.35,0,.34,0,.35,0,.35,0,.35,0,.35,0,.35,0,.35,0,.34,0,.35,0,.34,0,.34,0,.34,0,.33,0,.34,0,.32,0,.33,0,.31,0,.32,0,.3,0,.3,0,.3v.28l0,.28v.28l0,.26V244l0,.24,0,.23,0,.22,0,.22,0,.21,0,.2,0,.19-.06.19-.06.18-.08.18-.08.17-.09.17-.1.17-.11.17-.12.16-.14.17-.14.16-.16.17-.17.16-.19.17-.2.17-.21.18-.23.17-.24.19-.27.19-.27.19-.3.2-.31.21-.33.22-.35.22-.37.24-.39.24-.41.25-.43.27-.45.28-.27.16-.27.16-.26.17-.25.16-.26.16-.25.16-.25.16-.24.15-.24.16-.24.16-.23.15-.22.15-.22.15-.22.15-.21.14-.21.15-.19.14-.2.13-.18.14-.18.13-.18.13-.16.12-.16.12-.15.12-.15.12-.13.11-.13.1-.12.1-.12.1-.1.09-.09.09-.09.08-.07.08-.07.07-.06.06,0,.06,0,.06,0,.05,0,0v.07l0,.06.05.08.06.09.08.11.09.12.11.14.12.15.14.17.16.18.17.2.18.2.2.23.21.23.22.25.24.26.25.27.26.28.27.29.29.31.29.31.31.32.31.34.33.34.34.35.35.36.35.37.37.37.37.38.38.39.39.39.4.41.4.4.41.42.42.41.42.42.43.43.43.43.44.44.45.43.65.65.64.66.65.67.64.66.63.68.64.67.63.69.62.68.62.69.62.7.62.69.61.7.6.71.6.7.6.71.59.71.58.72.58.71.57.72.57.71.56.72.56.72.55.73.54.72.53.72.53.72.52.72.52.72.5.73.5.72.49.71.48.72.48.72.46.71.46.72.45.71.44.71.43.7.42.7.41.7,0,.09,0,.11v.12l0,.14,0,.15,0,.16-.07.18-.07.18-.1.19-.1.21-.12.21-.13.22-.15.22-.15.23-.16.23-.17.23-.18.24-.19.24-.19.23-.2.24-.21.24-.2.23-.21.22-.22.23-.21.21-.21.21-.22.2-.21.2-.21.18-.21.17-.2.16-.2.15-.2.13-.19.12-.18.11-.17.08-.17.07-.16.05-.14,0h-.17l0,0,0,0-.06-.05-.06-.05-.07-.07-.08-.08-.08-.09-.1-.1-.09-.11-.11-.13-.11-.13-.12-.14-.13-.16-.13-.16-.14-.17-.14-.18-.15-.19L253,300l-.16-.21-.16-.21-.17-.23-.17-.23-.18-.23-.18-.25-.18-.25-.18-.26-.19-.27-.2-.27-.19-.27-.2-.29-.2-.29-.2-.29-.21-.3-.2-.3-.21-.31-.21-.31-.21-.32-.21-.32-.21-.32-.92-1.32-.95-1.32-1-1.32-1-1.31-1-1.3-1-1.3L242,285.14l-1.08-1.28-1.11-1.28-1.12-1.26-1.13-1.25-1.15-1.24-1.17-1.22-1.18-1.22-1.19-1.19-1.2-1.18-1.22-1.16-1.22-1.15L228,270.58l-1.24-1.1-1.24-1.09-1.25-1.06-1.25-1-1.26-1-1.25-1-1.26-1-1.25-.95-1.26-.91-1.25-.89-1.25-.85-1.24-.83-1.24-.8-1.23-.76-1.22-.73-1.22-.7-1.2-.67-1.19-.62-1.18-.59-1.17-.56-1.15-.51-8.77-3.79-10.07,7-.42.28-.41.28-.41.28-.4.27-.4.27-.4.27-.39.26-.39.26-.39.26-.37.25-.38.24-.37.24-.36.24-.35.23-.35.22-.34.22-.33.21-.32.21-.32.2-.31.19-.3.19-.28.18-.28.17-.27.16-.26.15-.24.15-.24.14-.22.13-.22.12-.2.11-.18.1-.18.09-.16.08-.14.07-.14.06-.12,0-.1,0-.09,0-.07,0h-.1l-.07,0-.08,0-.09,0-.11,0-.12-.05-.14-.07-.15-.08-.16-.08-.17-.1-.19-.1-.2-.11-.21-.12-.22-.13L170,262l-.24-.14-.25-.15-.27-.16-.27-.17-.28-.17-.29-.18-.3-.19-.31-.19-.31-.2-.32-.2-.33-.22-.34-.21-.34-.22-.35-.23-.35-.23-.36-.23-.36-.24-.37-.25-.37-.24-.38-.26-.38-.25-.38-.26-.38-.26-.39-.26-.39-.27-.39-.27-.38-.26-.39-.26-.38-.26-.38-.26-.37-.25-.37-.24-.36-.25-.36-.24-.36-.23-.35-.23-.34-.23-.34-.22-.33-.22-.33-.21-.32-.2-.31-.2-.3-.19-.3-.19-.28-.18-.28-.17-.27-.17-.26-.16-.25-.15-.24-.14-.23-.14L153,251l-.21-.12-.2-.11-.18-.1-.17-.1-.16-.08-.15-.08-.13-.07-.13-.05-.1,0-.09,0-.08,0h-.23l-.07,0-.1,0-.1,0-.12.05-.14.07-.14.08-.16.08-.18.1-.18.1-.2.11-.2.12-.22.13-.23.14-.24.14-.25.15-.26.16-.27.17-.28.17-.28.18-.3.19-.3.19-.31.2-.32.2-.32.21-.34.22-.33.22-.35.23-.35.23-.35.23-.36.24-.37.25-.37.24-.37.25-.38.26-.38.26-.38.26-.39.26-.39.27-.39.27-.38.26-.39.26-.38.26-.38.25-.38.26-.37.24-.37.25-.36.24-.36.23-.35.23-.35.23-.34.22-.34.21-.33.22-.32.2-.32.2-.31.19-.3.19-.29.18-.28.17-.28.17-.26.16-.26.15-.25.14-.23.14-.23.13-.21.12-.21.11-.19.1-.18.1-.17.08-.15.08-.14.07-.13.05-.12,0-.1,0-.08,0-.07,0h-.12l-.07,0-.08,0-.1,0-.12,0-.13-.05-.14-.07-.15-.08-.17-.08-.18-.1-.19-.1-.21-.11-.21-.12-.23-.13-.23-.14-.25-.14-.26-.15-.26-.16-.28-.17-.28-.17-.29-.18-.3-.19-.31-.19-.32-.2-.32-.2-.33-.22-.34-.21-.34-.22-.35-.23-.35-.23-.36-.23-.36-.24-.37-.25-.37-.24-.38-.26-.38-.25-.38-.26-.39-.26-.38-.26-.39-.27-.39-.27-.39-.26-.38-.26-.38-.26-.38-.26-.37-.25-.37-.24-.37-.25-.36-.24-.35-.23-.35-.23-.35-.23-.33-.22-.34-.22-.32-.21-.32-.2-.31-.2-.3-.19-.3-.19-.28-.18-.28-.17-.27-.17-.26-.16-.25-.15-.24-.14-.23-.14L111,251l-.2-.12-.2-.11-.18-.1-.18-.1-.16-.08-.14-.08-.14-.07-.12-.05-.1,0-.1,0-.07,0h-.23l-.08,0-.09,0-.1,0-.13.05-.13.07-.15.08-.16.08-.17.1-.18.1-.2.11-.2.12-.22.13-.23.14-.24.14-.25.15-.26.16-.27.17-.28.17-.28.18-.3.19-.3.19-.31.2-.32.2-.33.21-.33.22-.34.22-.34.23-.35.23-.36.23-.36.24-.36.25-.37.24-.37.25-.38.26-.38.26-.39.26-.38.26-.39.27-.39.27-.39.26-.38.26-.38.26-.38.25-.38.26-.37.24-.37.25-.36.24-.36.23-.35.23-.35.23-.34.22-.34.21-.33.22-.32.2-.32.2-.31.19-.3.19-.29.18-.29.17-.27.17-.27.16-.25.15-.25.14-.24.14-.22.13-.22.12-.2.11-.19.1-.18.1-.17.08-.15.08-.14.07-.13.05-.12,0-.1,0-.08,0-.08,0h0l-.1,0-.15,0-.18-.08-.22-.1-.26-.13-.29-.15-.33-.18-.35-.2-.38-.22-.41-.24-.43-.26-.45-.27-.48-.3-.49-.3-.51-.32-.52-.34-.54-.34-.55-.36-.55-.36-.57-.37-.57-.38-.57-.38-.57-.38-.57-.39-.57-.39-.57-.38-.56-.39-.55-.38-.54-.38-.53-.38-.51-.37-.5-.36-.48-.35-.46-.34-.44-.33-.41-.32-.39-.3-.36-.29-.33-.27-.3-.25-.19-.16-.18-.15-.19-.13L70,251l-.19-.12-.19-.11-.19-.09-.2-.09-.2-.08-.21-.06-.21-.06-.22,0-.22,0-.24,0h-.76l-.27,0-.28,0-.3,0-.31.06-.32.07-.34.08-.35.09-.37.1-.38.12-.4.13-.42.14-.43.15-.46.16-.48.18-.49.19-.52.2-.54.22-.56.23-.58.24-.61.25-.64.27-.66.28-.68.29-1,.44-1,.45-1,.47-1,.49-1,.51-1,.54-1,.55-1,.57-1,.59-1,.62-1,.63-1,.65L44,261l-1,.69-1,.71-1,.74-1,.75-1,.78-1,.79-1,.82-1,.84-1,.85-1,.88-1,.9-1,.92-1,.94-1,1-1,1-1,1-1,1-1,1.05-1,1.06-1,1.09-1,1.1-1,1.13-1,1.15-1,1.16-1,1.19-1,1.22-1,1.23-.29.36-.28.36-.29.36-.28.36-.28.36-.28.36-.29.37-.27.36-.28.36-.28.36-.27.36-.27.35-.27.36-.26.35-.26.34-.26.35-.25.34-.25.33-.24.33-.24.33-.23.32-.23.31-.22.31-.22.3-.2.3-.21.28-.19.28-.19.27-.18.27-.17.25-.17.24-.15.24-.15.22-.14.22-.13.2-.12.2-.11.18-.1.17-.09.15-.07.15L6.88,302.2l-3.14-1.94-.13-.08-.13-.07L3.36,300,3.23,300l-.13-.08L3,299.79l-.12-.08-.12-.08-.13-.09-.12-.08-.12-.08-.11-.09-.12-.08L2,299.12,1.9,299,1.79,299l-.11-.09-.1-.08-.1-.09-.11-.09-.09-.08-.1-.09-.09-.08L1,298.27l-.09-.09-.08-.08L.75,298l-.08-.08-.07-.07-.07-.08-.07-.08-.06-.07-.06-.07-.05-.07,0-.07,0-.07,0-.06,0-.07,0-.06,0-.05L0,296.83v-.35l.07-.42.13-.48L.39,295l.25-.59L1,293.8l.36-.7.41-.74.46-.79.5-.83.55-.86.59-.9.63-.94.67-1,.7-1,.74-1,.77-1L8.12,283l.82-1.06.84-1.08.87-1.08.88-1.1.9-1.09.92-1.1.93-1.09.93-1.09.95-1.07.95-1.07.95-1.05,1-1,.95-1,.95-1,.94-1,.94-.93.92-.9.91-.87.89-.83.87-.79.86-.75.23-.2.24-.2.23-.2.22-.2.23-.2.22-.19.22-.2.21-.19.21-.19.21-.19.2-.18.2-.18.2-.18.19-.18.18-.17.19-.17.17-.17.17-.16.17-.16.16-.15.15-.15.15-.15.14-.14.13-.14.13-.13.12-.13.12-.12.1-.11.1-.11.09-.11.09-.09.07-.1.07-.08.06-.08,0-.07,0-.07,0-.06,0,0v-.16l0-.05,0,0,0-.06-.06-.07-.06-.07-.07-.08-.09-.09-.09-.09-.1-.1-.11-.1-.11-.1-.13-.11-.13-.12-.14-.12-.15-.12-.15-.13-.17-.13-.17-.14-.17-.14-.18-.14-.19-.15-.2-.15-.2-.15L30,253.7l-.21-.16-.21-.16-.23-.16-.22-.17-.24-.16-.23-.17-.25-.18-.24-.17-.25-.17-.25-.18-.26-.17-.26-.18-.26-.18-.27-.18L20.31,247,19,233.12l-.11-1.27-.12-1.26-.11-1.24-.11-1.23-.11-1.21-.12-1.2-.11-1.19-.11-1.17L18,222.19l-.11-1.14-.11-1.14-.12-1.12-.11-1.11-.11-1.1-.11-1.09-.11-1.08-.12-1.07L17,212.28l-.11-1.05-.12-1-.11-1-.11-1-.12-1-.12-1-.11-1-.12-1-.11-1-.12-1-.12-1-.12-1-.12-1-.12-1-.12-1-.13-1-.12-1-.13-1-.12-1-.13-1-.13-1-.13-1-.08-.58L14.2,189l-.08-.73-.07-.79-.06-.87-.07-1-.06-1-.06-1.1-.05-1.18-.05-1.27,0-1.35-.05-1.44,0-1.52,0-1.62,0-1.71,0-1.8,0-1.9,0-2,0-2.1,0-2.2,0-2.3,0-2.41,0-2.51,0-2.62v-2.74l0-2.84V79l0-2.31v-4.6l0-2.3,0-2.29V65.23l0-2.28,0-2.28,0-2.27,0-2.27,0-2.26,0-2.27,0-2.25,0-2.26,0-2.24,0-2.25,0-2.24,0-2.23,0-2.24,0-2.22,0-2.23,0-2.22,0-2.21,0-2.21,0-2.21,0-2.2,0-2.2,0-2.19,0-2.19,0-2.19,0-2.18,0-2.18.05-2.17L14.79,0H246l.76,15.38ZM35.51,13H33.82l-.23,0h-.23l-.22,0-.22,0h-.21l-.21,0-.21,0-.2,0-.2,0-.19,0-.18,0-.18,0-.18,0-.17,0-.16,0-.15,0-.15,0-.14,0-.13,0-.13,0-.12,0-.11,0-.1,0-.1,0-.08,0-.08,0-.07,0-.06,0,0,0,0,0,0,0-.09.17-.09.21-.08.27-.09.31-.08.36-.08.42-.07.47-.08.52-.08.58-.07.64-.07.69-.07.76-.07.82-.07.88-.07.94-.07,1L28,24l-.06,1.14-.07,1.22-.06,1.29L27.74,29l-.06,1.44L27.61,32l-.06,1.59-.06,1.67L27.42,37l-.06,1.83-.07,1.91-.06,2-.07,2.08L27.1,47,27,49.21,27,51.55,26.9,54l-.07,2.53-.07,2.62-.06,2.72-.07,2.81-.08,2.92-.07,3-.07,3.15-.06,3.15-.06,3.15-.05,3.15,0,3.14,0,3.14,0,3.14,0,3.13,0,3.12v12.4l0,3.07v3.06l0,3,0,3,0,3,0,3,.05,3,.06,3,.06,2.94.07,2.92.07,2.89.08,2.88.09,2.85.09,2.83.1,2.8.1,2.77.11,2.75.12,2.72.12,2.68.13,2.66.13,2.63.14,2.59.14,2.56.15,2.52.16,2.49.16,2.46.17,2.41L28.7,189l.16,2.18L29,193.3l.16,2.08.14,2,.15,2,.14,1.93.15,1.87.13,1.82.14,1.77.13,1.72.13,1.67.12,1.62.12,1.56.12,1.52.12,1.46.11,1.41.11,1.36.11,1.31.1,1.26.1,1.2.1,1.15.09,1.1.09,1.05.09,1,.08.94.08.89.08.84.07.78.07.73.07.68.06.63.06.57.05.52.06.47,0,.41,0,.36,0,.3,0,.25,0,.2.06.22.1.23.13.25.16.27.2.29.22.3.25.31.28.33.3.34.32.35.34.35.37.36.38.37.4.37.41.38.42.38.44.37.45.38.45.37.46.37.46.37.46.36.47.35.47.34.46.33.46.32.45.3.45.3.43.27.43.26.41.24.4.22.38.2.37.18.35.16.32.12.31.11.27.07.26.05h.39l.1,0,.12,0,.12,0,.13,0,.15-.05.15,0,.16-.05.17-.07.18-.07.19-.07.2-.08.21-.09.21-.09L49,246l.23-.11.23-.1.24-.11.25-.12.25-.12.26-.12.26-.13.27-.13.27-.14.28-.14.28-.14.29-.15.29-.15.29-.16.29-.15.3-.16.3-.16.31-.17.3-.17.31-.17.3-.17.31-.17.31-.18.31-.18.31-.17.3-.18.31-.17.31-.18.31-.17.3-.16.31-.17.3-.16.3-.16.3-.16.3-.15.29-.15.29-.15.29-.14.28-.14.28-.14.27-.13.27-.13.26-.13.26-.12.26-.11.24-.11.24-.11.24-.1.23-.1.22-.09.21-.08.2-.08.2-.08.19-.07.18-.06.17-.06.16-.05.15,0,.14,0,.13,0,.12,0h.62l.14,0,.16,0,.17.05.19,0,.2.06.22.08.23.07.25.09.26.1.27.1.28.11.3.12.31.12.32.13.33.14.34.15.35.15.36.16.37.16.38.17.38.17.4.18.4.19.41.19.41.19.42.2.43.2.43.21.44.21.44.22.45.21.45.22.45.23.46.23.46.23.46.23.46.23,11,5.74,11.26-6,11.37-6,18.41,12.56,10.61-5.3.88-.44.82-.41.78-.4.73-.36.69-.35.65-.33.62-.3.58-.28.56-.25.53-.23.5-.21.48-.19.47-.16.45-.14.44-.12.43-.09.43-.07.42,0,.43,0h.43l.43,0,.44.05.46.08.47.1.49.13.51.15.54.18.56.2.6.23.63.25.66.28.7.3.75.33.79.36.84.38.9.41.94.44,1,.46,1.06.49,1.13.51,7.15,3.25,8.77-6,8.88-5.84,4.87,1.51.2.07.22.07.22.07.22.07.23.07.24.07.24.08.25.08.25.08.25.08.26.08.26.08.26.08.27.08.27.09.27.08.27.09.28.08.27.09.28.08.27.09.28.08.27.09.28.08.28.09.27.08.27.08.27.09.27.08.26.08.27.08.26.08.25.07.25.08.25.07.24.08.24.07.24.07.22.07.23.06.21.07.21.06.22.06.22.07.22.06.23.06.22.06.22.06.23.06.23.06.22.06.23,0,.22.06.23.05.22.06.23,0,.22.05.22.05.22,0,.22,0,.21,0,.21,0,.21,0,.2,0,.21,0,.19,0,.2,0,.19,0,.18,0,.18,0,.18,0,.17,0,.16,0,.16,0h1l.26,0,.29,0,.31-.06.32-.07.35-.08.37-.1.39-.11.4-.12.41-.14.43-.14.44-.16.45-.16.45-.17.46-.18.47-.18.47-.2.47-.19.47-.2.47-.21.46-.21.46-.21.45-.21.45-.22.44-.21.42-.21.41-.22.4-.21.39-.21.36-.2.35-.21.32-.19.31-.2.28-.18.25-.18.23-.17.2-.17.17-.15.14-.15.11-.13,0-.06,0-.09,0-.11,0-.14,0-.15,0-.19,0-.2,0-.22,0-.25,0-.27.05-.28,0-.31.05-.33.06-.34.05-.36.06-.38.06-.4.06-.41.06-.43.06-.44.07-.46.06-.47.07-.49.06-.5.07-.51.07-.52.06-.53.07-.55.07-.55.07-.57.07-.57.07-.59.06-.59.07-.59.07-.61.07-.61.07-.62.06-.62.07-.63.06-.63.07-.64.07-.66.06-.66L231,218l.07-.67.07-.67.07-.68.07-.69.08-.68.07-.69.07-.69.07-.69.08-.68.07-.69.07-.68.08-.68.07-.68.07-.67.07-.66.08-.66.07-.66.07-.64.07-.64.06-.62.07-.62.07-.6.06-.59.07-.59.06-.56.06-.56.06-.53.06-.53,0-.5.06-.49.05-.47.05-.45,0-.43.05-.42,0-.39,0-.37.08-.72.08-.91.09-1.08.09-1.25.1-1.4.1-1.54.11-1.68.11-1.8.11-1.92.12-2,.12-2.13.12-2.22.12-2.3.12-2.37.13-2.43.12-2.48.12-2.52.13-2.56.12-2.59.12-2.6.12-2.61.11-2.6.12-2.59.11-2.57.11-2.54.1-2.5.1-2.45.09-2.39.09-2.33.09-2.24.07-2.16.07-2.07.07-2,.06-1.85.05-1.73,0-1.59,0-1.45,0-1.31,0-1.14v-3.56l0-.66,0-.71,0-.77,0-.84,0-.89,0-1,0-1,0-1.11-.05-1.19-.06-1.26-.06-1.35-.06-1.43-.07-1.52L236.31,99l-.08-1.71-.09-1.8-.09-1.91-.1-2-.1-2.12-.11-2.23-.11-2.34-.12-2.46-.13-2.58-.14-2.7-.14-2.83-.15-3-.15-3.08-.16-3.23-.17-3.36-.18-3.5-.18-3.65-.2-3.8-.19-3.94-.21-4.1-.22-4.26,0-.89-.05-.88-.05-.88,0-.86-.05-.86,0-.84-.06-.83-.05-.83,0-.8-.06-.8-.05-.78-.06-.77,0-.75-.06-.73-.05-.72-.06-.7-.05-.68-.06-.66-.05-.64-.06-.63-.05-.6-.06-.57-.05-.56-.05-.53-.06-.51,0-.48-.05-.46,0-.43-.06-.4-.05-.38-.05-.35,0-.32,0-.28-.05-.26-.05-.23,0-.19,0-.16,0-.13,0-.09,0-.06-.12,0-.28-.05-.43,0-.57,0-.72-.05-.87,0-1,0-1.14,0-1.27-.05-1.41,0-1.53-.05-1.65-.05-1.78,0-1.89-.05-2,0-2.12-.06-2.23-.05-2.33,0L205.45,15l-2.53-.06-2.63,0-2.72-.05-2.81-.06-2.9,0-3-.05-3.07,0-3.14-.05-3.21-.05-3.28-.06-3.35-.05-3.42,0-3.48-.05-3.53-.05-3.59,0-3.65-.05-3.69,0-3.74-.05-3.78,0-3.82,0-3.85,0-3.87,0-3.84,0-3.81,0-3.78,0-3.74,0-3.69,0-3.65,0-3.6,0-3.56,0-3.49,0-3.44,0-3.38,0-3.32,0-3.24,0-3.18,0-3.1,0-3,0-2.95,0-2.86,0-2.77,0-2.68,0-2.58,0-2.49,0-2.39,0-2.29,0-2.17,0-2.07,0-2,0-1.84,0-1.72,0-1.59,0-1.46,0H41.42l-1.2,0h-2l-.78,0h-2Zm56,188.6.2,0,.22.06.25.07.27.09.3.1.32.11.35.13.38.13.4.15.42.16.47.16.52.18.56.18.6.19.64.2.68.2.71.21.74.21.77.22.8.22.82.23.84.23.87.23.88.23.9.24.92.23.92.23.94.24.94.23.94.23.95.23,1,.22,1,.23.94.21.94.22.93.21.91.2.91.2.89.19.87.18.85.17.83.17.81.16.54.11.53.11.52.09.51.1.49.08.48.09.47.07.46.07.45.06.44.06.44,0,.42.05.42,0,.41,0,.41,0,.4,0,.4,0h2.35l.38,0,.4,0,.39,0,.39,0,.4,0,.41-.05.41-.06.41,0,.42-.07.43-.07.43-.07.76-.14.77-.14.77-.14.78-.15.78-.16.79-.16.8-.16.8-.17.8-.17.81-.18.8-.18.81-.18.82-.19.81-.19.81-.19.82-.2.81-.2.81-.2.81-.2.81-.21.8-.21.8-.21.8-.22.8-.21.78-.22.79-.22.77-.22.78-.22.76-.23.76-.22.75-.23.74-.23.73-.23.72-.23.32-.09.32-.09.32-.09.31-.09.31-.09.3-.08.3-.09.3-.08.28-.07.29-.08.27-.07.27-.07.26-.07.25-.06.25-.06.24-.06.23-.05.22-.06.21,0,.2-.05.19,0,.18,0,.17,0,.16,0,.14,0,.14,0,.12,0h.46l0,0,0,.07-.05.13-.11.17-.17.21-.23.26-.28.29-.33.33-.38.36-.42.4-.46.41-.49.45-.53.46-.56.48-.58.5-.6.5-.63.52-.63.52-.65.53-.65.53-.66.52-.66.52-.66.51-.65.5-.64.49-.62.47-.61.45-.58.42-.56.4-.54.37-.5.34-.47.31-.42.27-.39.23-.34.18-.36.19-.38.2-.39.19-.4.19-.42.19-.44.19-.45.2-.45.19-.48.19-.48.19-.5.19-.5.19-.52.19-.53.18-.54.19-.55.18-.55.18-.57.18-.57.18-.58.18-.59.17-.6.18-.6.17-.61.17-.62.16-.62.16-.62.16-.63.16-.64.15-.64.15-.64.15-.64.14-.65.14-.65.14-.44.09-.43.09-.41.08-.4.07-.4.07-.38.07-.37,0-.37.06-.36,0-.36,0-.35,0-.36,0-.34,0h-1.41l-.37,0-.36,0-.37,0-.39,0-.39,0-.4,0-.41-.05-.42-.06-.44-.07-.45-.08-.47-.08-.49-.09-.51-.1-.52-.11-.55-.11-.56-.13-.59-.13-1-.22-1-.24-1-.24-.93-.26-.93-.27-.91-.28-.91-.28-.89-.3-.88-.31-.87-.32-.86-.34-.84-.34-.84-.35-.82-.36-.81-.37-.8-.39-.79-.39-.77-.4-.77-.42-.75-.42-.73-.44-.73-.44-.71-.46-.7-.47-.69-.47-.68-.49-.66-.5-.65-.5-.64-.52-.62-.53-.61-.54-.6-.54-.58-.56-.57-.57-.48-.5-.46-.48-.42-.44-.4-.42-.37-.39-.34-.37-.31-.34-.29-.32-.26-.29-.23-.26-.2-.25-.17-.22-.15-.2-.12-.18-.09-.15-.07-.14,0-.11v-.17l0-.06.07,0,.09,0h.26Zm100.41-71.19,1.27.35,1.24.47,1.2.58,1.15.7,1.11.81,1,.91,1,1,.9,1.12.82,1.23.74,1.32.4.9.33.9.27.89.2.89.13.88.07.88v.88l-.07.87-.13.87-.19.86-.26.86-.33.86-.4.85-.46.85-.52.84-.59.84-.66.84-.73.83-.74.75-.79.68-.83.62-.87.55-.9.49-.93.42-1,.36-1,.29-1,.21-1,.15-1,.09h-1l-1-.06-1-.13-1-.21-1-.28-1-.36-1-.43-.72-.38-.72-.46-.69-.53-.69-.59-.66-.64-.64-.7-.61-.74-.58-.78-.54-.81-.5-.83-.46-.85-.41-.86-.36-.87-.3-.86-.25-.85-.17-.85-.11-.81,0-.8,0-.71.1-.74.15-.75.22-.76.26-.77.32-.77.37-.76.41-.77.45-.75.5-.73.53-.72.56-.69.59-.67.62-.63.64-.6.67-.55.68-.51.7-.46,1.24-.67,1.27-.54,1.3-.4,1.3-.27,1.32-.14h1.31l1.31.11Zm-116.33.11L77,131l1.42.61,1.35.75,1.25.89,1.16,1,1,1.12.89,1.22.75,1.32.58,1.41.39,1.49.19,1.58.07,1.05,0,1,0,.9v.82l0,.76-.06.71-.09.66-.13.63-.15.59-.2.56-.23.55-.28.55-.32.54-.36.54-.41.56-.47.58-.51.61-.57.65-.55.6-.51.54-.47.47-.45.43-.43.36-.42.32-.42.28-.43.23-.45.2-.46.15-.51.13-.54.1-.6.08-.66.05-.72,0-.8,0H70.32l-.77,0-.69,0-.64,0-.58-.08-.54-.09-.51-.12-.47-.14-.44-.17-.43-.19-.41-.23-.41-.25-.41-.3-.42-.32-.44-.37-.46-.4-.49-.45-.64-.67L61,154l-.56-.73-.51-.75-.47-.78L59,151l-.38-.81-.33-.83-.27-.84-.23-.85-.18-.85-.12-.86-.07-.86,0-.85,0-.85.09-.85.15-.83.2-.82.2-.7.22-.66.22-.63.24-.59.26-.56.28-.54.3-.51.32-.48.34-.47.38-.46.41-.44.43-.42L62,134l.51-.41.55-.42.59-.42.63-.42.68-.43,1.44-.74,1.49-.55,1.53-.37,1.55-.17h1.55l1.55.16Z"/></svg>